<svg width="22" height="22" viewBox="0 0 22 22" fill="none" xmlns="http://www.w3.org/2000/svg">
<path opacity="0.2" d="M19.25 11C19.25 12.6317 18.7661 14.2267 17.8596 15.5835C16.9531 16.9402 15.6646 17.9976 14.1571 18.622C12.6497 19.2464 10.9909 19.4098 9.39051 19.0915C7.79017 18.7731 6.32016 17.9874 5.16637 16.8336C4.01259 15.6798 3.22685 14.2098 2.90853 12.6095C2.5902 11.0092 2.75357 9.35035 3.378 7.84286C4.00242 6.33537 5.05984 5.0469 6.41655 4.14038C7.77326 3.23385 9.36831 2.75 11 2.75C13.188 2.75 15.2865 3.61919 16.8336 5.16637C18.3808 6.71354 19.25 8.81196 19.25 11Z" fill="#333333"/>
<path d="M11 2.0625C9.23233 2.0625 7.50436 2.58668 6.0346 3.56874C4.56483 4.55081 3.41929 5.94665 2.74283 7.57977C2.06637 9.21288 1.88938 11.0099 2.23424 12.7436C2.57909 14.4773 3.43031 16.0698 4.68024 17.3198C5.93017 18.5697 7.52268 19.4209 9.25638 19.7658C10.9901 20.1106 12.7871 19.9336 14.4202 19.2572C16.0534 18.5807 17.4492 17.4352 18.4313 15.9654C19.4133 14.4956 19.9375 12.7677 19.9375 11C19.935 8.6304 18.9926 6.35856 17.317 4.683C15.6414 3.00743 13.3696 2.065 11 2.0625ZM11 18.5625C9.50428 18.5625 8.04215 18.119 6.7985 17.288C5.55486 16.457 4.58555 15.2759 4.01316 13.894C3.44078 12.5122 3.29101 10.9916 3.58282 9.52463C3.87462 8.05765 4.59487 6.71014 5.65251 5.65251C6.71014 4.59487 8.05765 3.87461 9.52463 3.58281C10.9916 3.29101 12.5122 3.44077 13.894 4.01316C15.2759 4.58555 16.457 5.55485 17.288 6.7985C18.119 8.04215 18.5625 9.50428 18.5625 11C18.5602 13.005 17.7627 14.9272 16.345 16.345C14.9272 17.7627 13.005 18.5602 11 18.5625ZM16.5 11C16.5 11.1823 16.4276 11.3572 16.2986 11.4861C16.1697 11.6151 15.9948 11.6875 15.8125 11.6875H11C10.8177 11.6875 10.6428 11.6151 10.5139 11.4861C10.3849 11.3572 10.3125 11.1823 10.3125 11V6.1875C10.3125 6.00516 10.3849 5.8303 10.5139 5.70136C10.6428 5.57243 10.8177 5.5 11 5.5C11.1823 5.5 11.3572 5.57243 11.4861 5.70136C11.6151 5.8303 11.6875 6.00516 11.6875 6.1875V10.3125H15.8125C15.9948 10.3125 16.1697 10.3849 16.2986 10.5139C16.4276 10.6428 16.5 10.8177 16.5 11Z" fill="#333333"/>
</svg>
